<svg xmlns="http://www.w3.org/2000/svg" xmlns:xlink="http://www.w3.org/1999/xlink" width="7982.741" height="5595.107" viewBox="0 0 7982.741 5595.107">
  <defs>
    <filter id="Elipse_14" x="5918.562" y="1634.068" width="506.174" height="515.034" filterUnits="userSpaceOnUse">
      <feOffset dx="8" dy="9" input="SourceAlpha"/>
      <feGaussianBlur stdDeviation="14" result="blur"/>
      <feFlood flood-color="#1394e0" flood-opacity="0.231"/>
      <feComposite operator="in" in2="blur"/>
      <feComposite in="SourceGraphic"/>
    </filter>
    <linearGradient id="linear-gradient" x1="0.702" y1="0.382" x2="0.331" y2="0.849" gradientUnits="objectBoundingBox">
      <stop offset="0" stop-color="#4d63a0"/>
      <stop offset="1" stop-color="#222735"/>
    </linearGradient>
    <linearGradient id="linear-gradient-2" x1="0.496" y1="0.695" x2="0.509" y2="0.048" gradientUnits="objectBoundingBox">
      <stop offset="0" stop-color="#2e4175"/>
      <stop offset="1" stop-color="#222735"/>
    </linearGradient>
    <linearGradient id="linear-gradient-3" x1="0.442" y1="-0.282" x2="0.5" y2="1.112" gradientUnits="objectBoundingBox">
      <stop offset="0" stop-color="#fdc6c6"/>
      <stop offset="1" stop-color="#a47070"/>
    </linearGradient>
  </defs>
  <g id="_-Pages-New" data-name="ðŸ“-Pages-New" transform="translate(-3.344 -3.422)">
    <g id="Comingsoon" transform="translate(3.344 3.422)">
      <g id="Illustration" transform="translate(0 0)">
        <g id="Shape" transform="translate(0 0)">
          <path id="Triangle" d="M1467.825,68.209,2305.083,1357.9a45.793,45.793,0,0,1-38.41,70.728H592.159A45.793,45.793,0,0,1,553.75,1357.9L1391.007,68.209a45.793,45.793,0,0,1,76.817,0Z" transform="translate(5670.27 455.497)" fill="#ea5455" fill-rule="evenodd" opacity="0.05"/>
          <path id="Triangle-2" data-name="Triangle" d="M1119.732,263.332,2151.856,1861.8a45.793,45.793,0,0,1-38.47,70.633H49.137a45.793,45.793,0,0,1-38.47-70.633L1042.791,263.332a45.793,45.793,0,0,1,76.941,0Z" transform="translate(-3.344 2493.195)" fill="#ea5455" fill-rule="evenodd" opacity="0.05"/>
          <path id="Triangle-3" data-name="Triangle" d="M2058.667,239.379l1679.044,2605.79a45.793,45.793,0,0,1-38.494,70.6H341.129a45.793,45.793,0,0,1-38.494-70.6L1981.68,239.379a45.792,45.792,0,0,1,76.987,0Z" transform="translate(3047.451 2242.55)" fill="#ff0062" fill-rule="evenodd" opacity="0.25"/>
          <path id="Triangle-4" data-name="Triangle" d="M1202.9,60.33l583.684,986.224a45.793,45.793,0,0,1-39.408,69.116H579.809a45.793,45.793,0,0,1-39.409-69.116L1124.083,60.33a45.793,45.793,0,0,1,78.817,0Z" transform="translate(5541.229 356.317)" fill="#ff0062" fill-rule="evenodd" opacity="0.25"/>
          <path id="Triangle-5" data-name="Triangle" d="M636.018,24.544l414.343,647.708a45.793,45.793,0,0,1-38.575,70.47H183.1a45.793,45.793,0,0,1-38.575-70.47L558.868,24.544a45.793,45.793,0,0,1,77.151,0Z" transform="translate(1396.333 -3.422)" fill="#ea5455" fill-rule="evenodd" opacity="0.05"/>
        </g>
        <g id="Finance-Presentation" transform="translate(1049.297 899.575)">
          <g id="DesktopDasboard" transform="translate(0 0)">
            <path id="Rectangle" d="M287.774,0H5582.948c158.934,0,287.774,128.841,287.774,287.774V3556.359c0,158.933-128.84,287.774-287.774,287.774H287.774C128.841,3844.133,0,3715.292,0,3556.359V287.774C0,128.841,128.841,0,287.774,0Z" transform="translate(0 0)" fill="#f2f2f2" fill-rule="evenodd"/>
            <g id="ElementCard11" transform="translate(1637.471 593.894)">
              <g id="Rectangle-2" data-name="Rectangle" transform="translate(0 0)">
                <path id="Trazado_624" data-name="Trazado 624" d="M85.683,0H2242.175a85.683,85.683,0,0,1,85.683,85.683V1514.495a85.683,85.683,0,0,1-85.683,85.683H85.683A85.683,85.683,0,0,1,0,1514.495V85.683A85.683,85.683,0,0,1,85.683,0Z" transform="translate(0 0)"/>
                <path id="Trazado_625" data-name="Trazado 625" d="M85.683,0H2242.175a85.683,85.683,0,0,1,85.683,85.683V1514.495a85.683,85.683,0,0,1-85.683,85.683H85.683A85.683,85.683,0,0,1,0,1514.495V85.683A85.683,85.683,0,0,1,85.683,0Z" transform="translate(0 0)" fill="#ff0062"/>
              </g>
              <g id="Group-12" transform="translate(342.332 458.911)">
                <path id="Path" d="M128.519,29.148V375.712a17.137,17.137,0,0,1-17.137,17.137h-78.7a17.137,17.137,0,0,1-17.137-17.137V29.148A17.137,17.137,0,0,1,32.686,12.011h78.7A17.137,17.137,0,0,1,128.519,29.148Z" transform="translate(162.463 124.756)" fill="#fff" fill-rule="evenodd" opacity="0.395"/>
                <path id="Path-2" data-name="Path" d="M112.97,41.692V244.65a17.137,17.137,0,0,1-17.137,17.137h-78.7A17.137,17.137,0,0,1,0,244.65V41.692A17.137,17.137,0,0,1,17.137,24.555h78.7A17.137,17.137,0,0,1,112.97,41.692Z" transform="translate(0 255.818)" fill="#fff" fill-rule="evenodd"/>
                <path id="Path-3" data-name="Path" d="M144.068,17.2V500.533a17.137,17.137,0,0,1-17.137,17.137h-78.7A17.137,17.137,0,0,1,31.1,500.533V17.2A17.137,17.137,0,0,1,48.235.065h78.7A17.137,17.137,0,0,1,144.068,17.2Z" transform="translate(324.927 -0.065)" fill="#fff" fill-rule="evenodd"/>
                <path id="Path-4" data-name="Path" d="M159.618,23.175V438.122a17.137,17.137,0,0,1-17.137,17.137h-78.7a17.137,17.137,0,0,1-17.137-17.137V23.175A17.137,17.137,0,0,1,63.785,6.038h78.7A17.137,17.137,0,0,1,159.618,23.175Z" transform="translate(487.39 62.346)" fill="#fff" fill-rule="evenodd" opacity="0.395"/>
                <path id="Path-5" data-name="Path" d="M175.167,35.121V313.3a17.137,17.137,0,0,1-17.137,17.137h-78.7A17.137,17.137,0,0,1,62.2,313.3V35.121A17.137,17.137,0,0,1,79.334,17.985h78.7A17.137,17.137,0,0,1,175.167,35.121Z" transform="translate(649.853 187.166)" fill="#fff" fill-rule="evenodd"/>
                <path id="Path-6" data-name="Path" d="M190.716,62V271.8a17.137,17.137,0,0,1-17.137,17.137h-78.7A17.137,17.137,0,0,1,77.747,271.8V62A17.137,17.137,0,0,1,94.883,44.864h78.7A17.137,17.137,0,0,1,190.716,62Z" transform="translate(812.317 468.013)" fill="#fff" fill-rule="evenodd" opacity="0.395"/>
                <path id="Path-7" data-name="Path" d="M206.266,62V463.272a17.137,17.137,0,0,1-17.137,17.137h-78.7A17.137,17.137,0,0,1,93.3,463.272V62a17.137,17.137,0,0,1,17.137-17.137h78.7A17.137,17.137,0,0,1,206.266,62Z" transform="translate(974.78 468.013)" fill="#fff" fill-rule="evenodd"/>
                <path id="Path-8" data-name="Path" d="M221.815,62V360.7a17.137,17.137,0,0,1-17.137,17.137h-78.7A17.137,17.137,0,0,1,108.846,360.7V62a17.137,17.137,0,0,1,17.137-17.137h78.7A17.137,17.137,0,0,1,221.815,62Z" transform="translate(1137.243 468.013)" fill="#fff" fill-rule="evenodd" opacity="0.395"/>
                <path id="Path-9" data-name="Path" d="M237.364,62V429.08a17.136,17.136,0,0,1-17.136,17.137h-78.7a17.137,17.137,0,0,1-17.137-17.137V62a17.137,17.137,0,0,1,17.137-17.137h78.7A17.136,17.136,0,0,1,237.364,62Z" transform="translate(1299.707 468.013)" fill="#fff" fill-rule="evenodd"/>
                <path id="Path-10" data-name="Path" d="M252.914,62V271.8a17.137,17.137,0,0,1-17.137,17.137h-78.7A17.137,17.137,0,0,1,139.944,271.8V62a17.137,17.137,0,0,1,17.137-17.137h78.7A17.137,17.137,0,0,1,252.914,62Z" transform="translate(1462.17 468.013)" fill="#fff" fill-rule="evenodd" opacity="0.395"/>
              </g>
              <path id="Rectangle-3" data-name="Rectangle" d="M45.035,23.893H729.749a20.515,20.515,0,0,1,0,41.03H45.035a20.515,20.515,0,0,1,0-41.03Z" transform="translate(256.192 249.642)" fill="#fff" fill-rule="evenodd" opacity="0.395"/>
              <rect id="Rectangle-4" data-name="Rectangle" width="383.412" height="41.03" transform="translate(280.712 157.283)" fill="#fff"/>
            </g>
            <path id="Rectangle-5" data-name="Rectangle" d="M287.774,0H917.528C1076.461,0,1205.3,128.841,1205.3,287.774V3844.133H287.774C128.841,3844.133,0,3715.292,0,3556.359V287.774C0,128.841,128.841,0,287.774,0Z" transform="translate(0 0)" fill="#e4e4e4" fill-rule="evenodd"/>
            <path id="Rectangle-6" data-name="Rectangle" d="M70.026,46.29h782.01a57.241,57.241,0,0,1,57.241,57.241v49.981a57.241,57.241,0,0,1-57.241,57.241H70.026a57.241,57.241,0,0,1-57.241-57.241V103.531A57.241,57.241,0,0,1,70.026,46.29Z" transform="translate(133.581 483.646)" fill="rgba(255,255,255,0.42)" fill-rule="evenodd"/>
            <path id="Rectangle-7" data-name="Rectangle" d="M70.026,72.627H486.121a57.241,57.241,0,0,1,57.241,57.241v49.981a57.241,57.241,0,0,1-57.241,57.241H70.026a57.241,57.241,0,0,1-57.241-57.241V129.868A57.241,57.241,0,0,1,70.026,72.627Z" transform="translate(133.581 758.824)" fill="rgba(255,255,255,0.2)" fill-rule="evenodd"/>
            <path id="Rectangle-8" data-name="Rectangle" d="M70.026,96.57H486.121a57.241,57.241,0,0,1,57.241,57.241v49.981a57.241,57.241,0,0,1-57.241,57.241H70.026a57.241,57.241,0,0,1-57.241-57.241V153.811A57.241,57.241,0,0,1,70.026,96.57Z" transform="translate(133.581 1008.986)" fill="rgba(255,255,255,0.2)" fill-rule="evenodd"/>
            <path id="Rectangle-9" data-name="Rectangle" d="M375.561,0H1659c158.934,0,287.774,128.841,287.774,287.774V3556.359c0,158.933-128.84,287.774-287.774,287.774H375.561Z" transform="translate(3923.944 0)" fill="#e4e4e4" fill-rule="evenodd"/>
            <g id="Group-23" transform="translate(4565.247 539.073)">
              <g id="Rectangle-10" data-name="Rectangle" transform="translate(0 0)">
                <path id="Trazado_626" data-name="Trazado 626" d="M114.522,0H977.813a114.482,114.482,0,0,1,114.481,114.03l4.584,1159.833A114.482,114.482,0,0,1,982.849,1388.8H119.106A114.482,114.482,0,0,1,4.624,1274.768L.041,114.935A114.482,114.482,0,0,1,114.069,0Z" transform="translate(-0.04 0)"/>
                <path id="Trazado_627" data-name="Trazado 627" d="M114.522,0H977.813a114.482,114.482,0,0,1,114.481,114.03l4.584,1159.833A114.482,114.482,0,0,1,982.849,1388.8H119.106A114.482,114.482,0,0,1,4.624,1274.768L.041,114.935A114.482,114.482,0,0,1,114.069,0Z" transform="translate(-0.04 0)" fill="#fff"/>
              </g>
              <path id="Rectangle-11" data-name="Rectangle" d="M57.775,75.021H405.461a27.41,27.41,0,0,1,0,54.821H57.775a27.41,27.41,0,0,1,0-54.821Z" transform="translate(316.802 783.84)" fill="#007fff" opacity="0.34"/>
              <path id="Rectangle-12" data-name="Rectangle" d="M49.784,87.791H580.428a27.41,27.41,0,0,1,0,54.821H49.784a27.41,27.41,0,0,1,0-54.821Z" transform="translate(233.314 917.26)" fill="#007fff" opacity="0.34"/>
              <g id="Icon8" transform="translate(338.018 228.421)">
                <g id="Oval" transform="translate(0 0)">
                  <g transform="matrix(1, 0, 0, 1, -5952.56, -1667.07)" filter="url(#Elipse_14)">
                    <ellipse id="Elipse_14-2" data-name="Elipse 14" cx="211.087" cy="215.517" rx="211.087" ry="215.517" transform="translate(5952.56 1667.07)"/>
                  </g>
                  <ellipse id="Elipse_15" data-name="Elipse 15" cx="211.087" cy="215.517" rx="211.087" ry="215.517" fill="#fff"/>
                </g>
                <g id="Group-70" transform="translate(128.07 100.505)">
                  <path id="Combined-Shape" d="M129.05,123.135a44.944,44.944,0,0,1,44.944,44.944v29.927a15.017,15.017,0,0,1-15.017,15.017H15.017A15.017,15.017,0,0,1,0,198.006V168.079a44.944,44.944,0,0,1,44.944-44.944ZM87,0A53.933,53.933,0,1,1,33,53.933,53.965,53.965,0,0,1,87,0Z" transform="translate(0 0)" fill="#ff0062" fill-rule="evenodd"/>
                </g>
              </g>
            </g>
            <path id="Rectangle-13" data-name="Rectangle" d="M453.578,237.036h1038.15a57.241,57.241,0,0,1,57.241,57.241V1075.2a57.241,57.241,0,0,1-57.241,57.241H453.578a57.241,57.241,0,0,1-57.241-57.241V294.277A57.241,57.241,0,0,1,453.578,237.036Z" transform="translate(4141.014 2476.602)" fill="rgba(255,255,255,0.35)" fill-rule="evenodd"/>
            <path id="Rectangle-14" data-name="Rectangle" d="M287.774,0H5582.948c158.934,0,287.774,128.841,287.774,287.774v29.543H0V287.774C0,128.841,128.841,0,287.774,0Z" transform="translate(0 0)" fill="#d4d4d4" fill-rule="evenodd"/>
            <path id="Oval-2" data-name="Oval" d="M54.171,83.47A36.547,36.547,0,1,0,17.579,46.923,36.569,36.569,0,0,0,54.171,83.47Z" transform="translate(183.674 108.403)" fill="#f5818d" fill-rule="evenodd"/>
            <path id="Oval-3" data-name="Oval" d="M66.956,83.47A36.547,36.547,0,1,0,30.365,46.923,36.569,36.569,0,0,0,66.956,83.47Z" transform="translate(317.255 108.403)" fill="#ffbd63" fill-rule="evenodd"/>
            <path id="Oval-4" data-name="Oval" d="M80.54,83.47A36.547,36.547,0,1,0,43.949,46.923,36.569,36.569,0,0,0,80.54,83.47Z" transform="translate(459.185 108.403)" fill="#4ce47a" fill-rule="evenodd"/>
          </g>
          <g id="ElementCard25" transform="translate(1659.993 2392.679)">
            <g id="Rectangle-15" data-name="Rectangle" transform="translate(0 0)">
              <path id="Trazado_628" data-name="Trazado 628" d="M68.546,0h1327.06a68.547,68.547,0,0,1,68.547,68.546v405.8a68.547,68.547,0,0,1-68.547,68.547H68.546A68.547,68.547,0,0,1,0,474.342V68.546A68.546,68.546,0,0,1,68.546,0Z" transform="translate(0 0)"/>
              <path id="Trazado_629" data-name="Trazado 629" d="M68.546,0h1327.06a68.547,68.547,0,0,1,68.547,68.546v405.8a68.547,68.547,0,0,1-68.547,68.547H68.546A68.547,68.547,0,0,1,0,474.342V68.546A68.546,68.546,0,0,1,68.546,0Z" transform="translate(0 0)" fill="#fff"/>
            </g>
            <path id="Rectangle-16" data-name="Rectangle" d="M58.124,26.345H332.31a16.451,16.451,0,0,1,0,32.9H58.124a16.451,16.451,0,0,1,0-32.9Z" transform="translate(435.41 275.259)" fill="#ffba00" fill-rule="evenodd" opacity="0.2"/>
            <path id="Rectangle-17" data-name="Rectangle" d="M58.124,18.2H222.636a16.451,16.451,0,1,1,0,32.9H58.124a16.451,16.451,0,1,1,0-32.9Z" transform="translate(435.41 190.179)" fill="#ffba00" fill-rule="evenodd" opacity="0.5"/>
            <path id="Path-11" data-name="Path" d="M171.631,29.323a20.564,20.564,0,0,1,35.686-3.082l.753,1.186L248.4,96.011a1.371,1.371,0,0,0,1.877.487l.177-.124.155-.15,21.459-24.261a20.564,20.564,0,0,1,30.62-.209l.73.848,31.469,38.647a1.371,1.371,0,0,0,1.929.2l.164-.158.136-.183L386.821,30.78A20.564,20.564,0,0,1,419.2,27.423l.877.983,23.157,27.68a9.6,9.6,0,0,1-14.13,12.96l-.59-.645-23.157-27.68a1.372,1.372,0,0,0-1.984-.126l-.233.284-49.707,80.326a20.565,20.565,0,0,1-32.671,3.048l-.762-.884L288.533,84.722a1.371,1.371,0,0,0-1.812-.283l-.278.241L264.984,108.94a20.564,20.564,0,0,1-32.532-2.243l-.6-.957L191.526,37.155a1.371,1.371,0,0,0-2.234-.185l-.2.311L149.8,123.507a20.565,20.565,0,0,1-6.567,8.067l-1.091.746-46.587,29.7a9.6,9.6,0,0,1-11.034-15.681l.716-.5,46.586-29.7a1.371,1.371,0,0,0,.379-.36l.132-.228Z" transform="translate(844.258 180.56)" fill="#ffba00"/>
            <circle id="Oval-5" data-name="Oval" cx="112.416" cy="112.416" r="112.416" transform="translate(159.028 164.512)" fill="#ffba00"/>
          </g>
          <g id="ElementCard26" transform="translate(1659.993 3136.814)">
            <g id="Rectangle-18" data-name="Rectangle" transform="translate(0 0)">
              <path id="Trazado_630" data-name="Trazado 630" d="M68.546,0h1327.06a68.547,68.547,0,0,1,68.547,68.546v405.8a68.547,68.547,0,0,1-68.547,68.547H68.546A68.547,68.547,0,0,1,0,474.342V68.546A68.546,68.546,0,0,1,68.546,0Z" transform="translate(0 0)"/>
              <path id="Trazado_631" data-name="Trazado 631" d="M68.546,0h1327.06a68.547,68.547,0,0,1,68.547,68.546v405.8a68.547,68.547,0,0,1-68.547,68.547H68.546A68.547,68.547,0,0,1,0,474.342V68.546A68.546,68.546,0,0,1,68.546,0Z" transform="translate(0 0)" fill="#fff"/>
            </g>
            <path id="Rectangle-19" data-name="Rectangle" d="M59.082,26.824H333.268a16.451,16.451,0,0,1,0,32.9H59.082a16.451,16.451,0,0,1,0-32.9Z" transform="translate(445.42 280.264)" fill="#007fff" fill-rule="evenodd" opacity="0.454"/>
            <path id="Rectangle-20" data-name="Rectangle" d="M59.082,18.681H223.594a16.451,16.451,0,0,1,0,32.9H59.082a16.451,16.451,0,0,1,0-32.9Z" transform="translate(445.42 195.184)" fill="#007fff" fill-rule="evenodd"/>
            <path id="Path-146" d="M81.909,180.457,138.119,81.8a27.419,27.419,0,0,1,37.4-10.25q.183.1.365.212l13.91,8.211a27.419,27.419,0,0,0,30.874-2.048l24.572-19.3a27.419,27.419,0,0,1,31.642-1.577l15.615,9.924A27.419,27.419,0,0,0,330.34,58.54q.427-.672.814-1.367,16.91-30.365,41.708-37.315,34.343-9.624,78.215,0v160.6Z" transform="translate(855.807 157.206)" fill="#bacbff" fill-rule="evenodd"/>
            <path id="Path-146-2" data-name="Path-146" d="M81.909,127.464l60.659-48.254A27.419,27.419,0,0,1,174.909,77.9l3.508,2.353a27.418,27.418,0,0,0,32.207-1.208l23.644-18.57a27.419,27.419,0,0,1,31.642-1.577l21.6,13.726a27.418,27.418,0,0,0,35.448-5.208q28.691-33.184,56.093-40.863,34.343-9.624,72.029-4.847V127.464Z" transform="translate(855.807 210.198)" fill="#007fff" fill-rule="evenodd"/>
            <circle id="Oval-6" data-name="Oval" cx="112.416" cy="112.416" r="112.416" transform="translate(159.028 164.512)" fill="#007fff"/>
          </g>
          <g id="Icon2" transform="translate(2955.667 2993.229)">
            <ellipse id="Oval-7" data-name="Oval" cx="166.843" cy="171.716" rx="166.843" ry="171.716" transform="translate(0 0)" fill="#007fff"/>
            <path id="Path-12" data-name="Path" d="M32.608,51.086a14.127,14.127,0,0,0-21.8,17.978l49.051,59.394a16.827,16.827,0,0,0,26.471-.667l70.291-94.429A14.127,14.127,0,0,0,133.949,16.5L72.369,99.231Z" transform="translate(77.162 107.706)" fill="#fff" fill-rule="evenodd"/>
          </g>
          <g id="Men3.2" transform="translate(297.67 1181.879)">
            <g id="LLeg" transform="translate(440.977 1275.499)">
              <path id="Path-13" data-name="Path" d="M142.207,171.266s-1.426,90.365,54.572,122.462,142.744,91.748,142.744,91.748L9.507,396.556l9.409-226.1Z" transform="translate(99.335 1780.925)" fill="#f8cfcf" fill-rule="evenodd"/>
              <path id="Path-14" data-name="Path" d="M13.4,202.846l-5.369,146.6H84.685l5.254-18.886s28.86-1.173,45.536,6.984c17.628,8.629,20,12.813,20,12.813l243.139.507s11.994-47.381-62.121-81.652S208.41,186.279,198.157,181.3c-10.325-5.015-31.156-7.85-45.826,3.938S126.057,228,92.814,228.969C50.028,230.221,25.45,178.053,13.4,202.846Z" transform="translate(83.92 1848.925)" fill="#4b4b4b" fill-rule="evenodd"/>
              <line id="Path-38" x1="25.207" y2="24.149" transform="translate(279.904 2046.124)" fill="none" stroke="#fff" stroke-linecap="round" stroke-width="2"/>
              <line id="Path-38-2" data-name="Path-38" x1="25.207" y2="24.149" transform="translate(316.659 2064.429)" fill="none" stroke="#fff" stroke-linecap="round" stroke-width="2"/>
              <line id="Path-38-3" data-name="Path-38" x1="25.207" y2="24.149" transform="translate(353.414 2082.735)" fill="none" stroke="#fff" stroke-linecap="round" stroke-width="2"/>
              <path id="Path-15" data-name="Path" d="M0,0S91.683,999.772,94.534,1069.271s-29.447,189.44-28.819,319.441q.628,130,11.8,588.18l202.247,4.238q85-827.962,85.916-952.12c.911-124.157,8.706-1017.059,8.706-1017.059Z" transform="translate(0)" fill="#383838" fill-rule="evenodd"/>
              <path id="Path-16" data-name="Path" d="M85.815,410.5l.223,2.474Q90.606,476.543,6.3,831.3L5.748,698.817h0c-.617-127.68,30.528-245.655,28.938-315.67l-.12-3.771c-.961-23.421-12.01-152.493-26.24-313.346l6.641,23.558Q73.461,298.9,85.815,410.5Z" transform="translate(59.967 689.895)" fill="rgba(255,255,255,0.19)" fill-rule="evenodd" opacity="0.284"/>
            </g>
            <g id="RLeg" transform="translate(128.626 1274.152)">
              <path id="Path-17" data-name="Path" d="M42.133,172.926,3.409,407.16l142.75-.713,4.515-237.193Z" transform="translate(29.778 1764.731)" fill="#f8cfcf" fill-rule="evenodd"/>
              <path id="Path-18" data-name="Path" d="M32.408,237.753l-1.069,32.321h0Q9.947,293.768.51,364.865c0,33.118,220.608,32.135,231.21,0q-11.554-77.432-36.475-96.9l-.119-32.044a34.345,34.345,0,0,0-25.456-33.047l-19.117-5.122h0c-20.867-30.393-49.306-29.319-73.675,3.8l-17.41,3.768A34.345,34.345,0,0,0,32.408,237.753Z" transform="translate(-0.51 1833.127)" fill="#4b4b4b" fill-rule="evenodd"/>
              <line id="Path-39" x2="57.787" transform="translate(84.475 2059.995)" fill="none" stroke="#fff" stroke-linecap="round" stroke-width="2"/>
              <line id="Path-39-2" data-name="Path-39" x2="57.787" transform="translate(84.475 2087.453)" fill="none" stroke="#fff" stroke-linecap="round" stroke-width="2"/>
              <line id="Path-39-3" data-name="Path-39" x2="39.41" transform="translate(93.664 2114.91)" fill="none" stroke="#fff" stroke-linecap="round" stroke-width="2"/>
              <path id="Path-19" data-name="Path" d="M122.116,9.787S58.333,695.769,59.2,827.134s19.629,189.064-7.073,283.3Q25.419,1204.674,2.644,1956.87l197.48,21.582Q326.284,1173.56,340,1061.966C353.721,950.372,523.28.32,523.28.32Z" transform="translate(21.789 -0.32)" fill="#2e2e2e" fill-rule="evenodd"/>
              <path id="Path-20" data-name="Path" d="M173.964,468.526l-12.045,43.54c-35.27,128.5-67.824,264.382-59.3,458.493l.416,8.864q3.148,63.073-80.367,732.1l-5.3,31.348q-8.192,47.958-14.583,81.84L4,1785.21c7.1-218.032,26.194-609.472,46.642-681.62,26.7-94.238,7.94-151.931,7.073-283.3-.607-91.956,30.465-455.674,49.162-665.629L120.627,2.94,203.987.976l.2,23.368q2.2,323.532-30.225,444.182Z" transform="translate(23.278 6.527)" fill="rgba(255,255,255,0.19)" fill-rule="evenodd" opacity="0.284"/>
            </g>
            <g id="LArm" transform="translate(652.306 171.188)">
              <g id="Group-6" transform="translate(578.965)">
                <path id="Path-21" data-name="Path" d="M11.815,267.074S-4.63,175.789,1.283,157.3c5.051-15.976,52.785-39.013,52.785-39.013S137.1-12.35,155.266.951c14.782,10.786-43.238,107.1-43.238,107.1s52.908,55.29,52.169,80S77.843,290.142,77.843,290.142Z" transform="translate(0 0)" fill="#f8cfcf" fill-rule="evenodd"/>
                <path id="Path-22" data-name="Path" d="M4.879,15.471S41.65,10.49,47.5,21.889C52.49,31.6,21.94,59.147,21.94,66.89s.437,66.352,2.895,66.885,36.833-95.64,29.5-115.984C48.3,1.09,4.879,15.471,4.879,15.471Z" transform="translate(50.975 101.507)" fill="#f28585" fill-rule="evenodd"/>
              </g>
              <path id="Path-23" data-name="Path" d="M152.933,158.868C56.621,75.066-88.007,226.146,73.261,366.6c61.526,53.582,254.784,187.244,302.158,216.632,75.42,46.787,137.4,4.567,162.869-69.042,21.6-62.41,150.829-396.491,134.385-445.562-10.722-32-68.275-63.143-97.162-37.96C533.293,67.478,404.156,390.316,404.156,390.316S262.442,254.151,152.933,158.868Z" transform="translate(-0.796 224.35)" fill="#fb0062" fill-rule="evenodd"/>
              <path id="Path-24" data-name="Path" d="M36.029,81.539q42.3,51.67,45.351,43.778T47.838,51.026Z" transform="translate(367.33 533.127)" fill="rgba(0,0,0,0.16)" fill-rule="evenodd"/>
              <path id="Path-41" d="M50.017,29.15c33.6-15.67,70.311,3.7,90.544,34.788" transform="translate(513.479 246.569)" fill="none" stroke="#5386bf" stroke-linecap="round" stroke-width="1" fill-rule="evenodd"/>
            </g>
            <g id="Head" transform="translate(389.761 0)">
              <path id="Path-25" data-name="Path" d="M.663,244.74s54.681-12.786,56.578-102.032S57.806,23,57.806,23l129.634-2.165s1.309,99.462,1.332,135.438c.05,78.321,58.446,99.483,58.446,99.483s-4.853,85.638-113.992,91.751C48.014,352.286.663,244.74.663,244.74Z" transform="translate(-0.663 214.969)" fill="#f8c5c5" fill-rule="evenodd"/>
              <g id="Head1" transform="translate(5.239)">
                <path id="Path-26" data-name="Path" d="M29.237,35.88l-2.894,84.344C50.84,91.546,67.385,55.991,72.286,10.393Z" transform="translate(267.793 105.88)" fill-rule="evenodd" fill="url(#linear-gradient)"/>
                <path id="Path-27" data-name="Path" d="M36.984,96.014c-53.731-2.071-44.967,76.277,10.849,76.171,0,0,59.985,120.139,154.161,120.452,45.364.149,60.175-40.1,73.774-68.355s23.58-70.519,24.409-96.4c.892-27.592,1.005-118.239,1.005-118.239L34.892,9.528Z" transform="translate(3.016 96.842)" fill="#f8cfcf" fill-rule="evenodd"/>
                <path id="Path-28" data-name="Path" d="M304.85,148.319H117.573c-1.967,33.71-13.207,61.7-41.75,82.347.809,49.383,17.4,85.332,46.155,110.542,25.037-71.474,178.2-51.919,167.06-5.284-23.4,97.972-242.76,100.193-229.455-125.3-8.749-11.884-40.047-14.106-50.35-2.222C-8.361,159.14-.852,89.449,50.031,79.368,10.088-25.61,553.2-47.818,304.85,148.319Z" transform="translate(-0.65 -0.237)" fill="#424242" fill-rule="evenodd"/>
                <path id="Path-29" data-name="Path" d="M0,0S18.95,23.564,55.028,13.018" transform="matrix(0.966, -0.259, 0.259, 0.966, 184.204, 331.36)" fill="none" stroke="#cc6969" stroke-linecap="round" stroke-width="1" fill-rule="evenodd"/>
                <path id="Path-8-2" data-name="Path-8" d="M10.227,27.561C13.593,15.44,12.087,4.849,0,0" transform="translate(32.216 213.029) rotate(-13)" fill="none" stroke="#de6767" stroke-linecap="round" stroke-width="1" fill-rule="evenodd"/>
              </g>
            </g>
            <g id="Body" transform="translate(193.771 445.767)">
              <path id="Path-30" data-name="Path" d="M217.683,0,374.115,101.949,444.65,19.644s148.6,46.205,176.169,100.227c39.78,77.957-12.631,702.548,10.217,740.238,48.686,80.314-16.045,135.446-230.351,155.7s-404.43,3.669-369.93-103.51S-67.885,105.606,49.5,67.072C86.182,55.031,217.683,0,217.683,0Z" transform="translate(-0.072 0)" fill="#ff0062" fill-rule="evenodd"/>
              <path id="Path-31" data-name="Path" d="M112.113,60.618q14.21,25.2-14.651,174.632a319.337,319.337,0,0,0,51.836,243.5l2.781,3.917q25.1,34.807,46.283,91.659C233,667.281,153.115,744.772,214.33,890.195l-7.4-.351C86.818,883.608,7.425,852.556,30.756,780.077,59.05,692.193-25.365,206.118,8.016,12.655Q94.7,29.735,112.113,60.618Z" transform="translate(-0.072 132.226)" fill="rgba(0,0,0,0.16)" fill-rule="evenodd"/>
              <path id="Path-32" data-name="Path" d="M39.829,0,179.753,91.535c-20.512,23.913-31.512,51.739-35.665,82.365C90.314,131.717,34.415,72.773,17.094,9.387Z" transform="translate(177.782)" fill="#e26898" fill-rule="evenodd"/>
              <path id="Path-33" data-name="Path" d="M33.711,72.445c23.661,16.053,42.535,44.472,57.9,76.785,18.42-37.134,25.474-86.175,25.474-138.466L93.979,1.6Z" transform="translate(351.391 16.706)" fill="#e26898" fill-rule="evenodd"/>
              <path id="Path-34" data-name="Path" d="M31.3,10.162l1.813,1.016a21.7,21.7,0,0,0,25.753-3.39h0c52.755,194,89.857,407.536,101.076,624.55l-55.056,91.729-64.4-85.848C48.88,412.674,48.824,192.76,31.3,10.162Z" transform="translate(326.233 81.364)" fill-rule="evenodd" fill="url(#linear-gradient-2)"/>
            </g>
            <g id="RArm" transform="translate(0 517.796)">
              <g id="Example-Book-Back" transform="translate(701.159 479.687) rotate(6)">
                <g id="Group-3" transform="translate(0 0)">
                  <path id="Rectangle-21" data-name="Rectangle" d="M29.352.023,153.474,5.057A28.208,28.208,0,0,1,180.54,33.242V248.575a28.208,28.208,0,0,1-28.208,28.208q-.572,0-1.143-.023L27.065,271.727A28.208,28.208,0,0,1,0,243.541V28.208A28.208,28.208,0,0,1,28.208,0Q28.78,0,29.352.023Z" transform="translate(0 5.855)" fill="#6182ec"/>
                  <path id="Rectangle-22" data-name="Rectangle" d="M30.721.112l133.059,11.9h0L251.819,1.236a28.209,28.209,0,0,1,31.635,28V244.194a28.208,28.208,0,0,1-24.782,28L163.78,283.806h0L25.7,271.459A28.208,28.208,0,0,1,0,243.363V28.208A28.208,28.208,0,0,1,28.208,0Q29.466,0,30.721.112Z" transform="translate(14.702)" fill="#96effa" fill-rule="evenodd"/>
                  <path id="Rectangle-23" data-name="Rectangle" d="M19.717.054,78.645,4.569A18.317,18.317,0,0,1,95.563,22.832V44.667A18.317,18.317,0,0,1,77.245,62.985q-.7,0-1.4-.054L16.918,58.416A18.317,18.317,0,0,1,0,40.152V18.317A18.317,18.317,0,0,1,18.317,0Q19.018,0,19.717.054Z" transform="translate(44.106 57.399)" fill="#74cfdb"/>
                  <path id="Rectangle-24" data-name="Rectangle" d="M9.159,0h3.736a9.159,9.159,0,0,1,9.159,9.159v252.6a9.159,9.159,0,0,1-9.159,9.159H9.159A9.159,9.159,0,0,1,0,261.759V9.159A9.159,9.159,0,0,1,9.159,0Z" transform="translate(169.072 12.009)" fill="#eaefff"/>
                  <path id="Rectangle-25" data-name="Rectangle" d="M9.159,0h3.736a9.159,9.159,0,0,1,9.159,9.159v252.6a9.159,9.159,0,0,1-9.159,9.159H9.159A9.159,9.159,0,0,1,0,261.759V9.159A9.159,9.159,0,0,1,9.159,0Z" transform="translate(176.423 12.009)" fill="#7ad2dd"/>
                </g>
              </g>
              <path id="Path-35" data-name="Path" d="M57.453,99.657S105.168,90.1,124.7,74.831s78.659-26.062,78.659-26.062L184.439,88.454s144.938-13.552,148.369.69-38.485,29.725-38.485,29.725-20.672,38.463-40.686,60.758c-18.937,21.1-113.015,18.587-146,5.419-28.5-11.372-59.483-5.686-59.483-5.686Z" transform="translate(503.148 509.542)" fill="#f8cfcf" fill-rule="evenodd"/>
              <path id="Path-36" data-name="Path" d="M176.853,54.638c51.827-111.563,229.289-36.4,184.566,83.114C318.1,253.532,213.135,523.845,213.135,523.845s332.61,42.064,358.539,61.678c34.591,26.165,13.21,100.839-16.193,114.134-24.874,11.243-209.652,17.819-390.442,3.623C75.6,696.26,9.456,657.982.229,558.563-6.235,488.945,126.922,162.109,176.853,54.638Z" transform="translate(-0.001 0)" fill="#fb0062" fill-rule="evenodd"/>
              <path id="Path-37" data-name="Path" d="M38.25,45.752Q10.607,98.1,18.508,99.164T66.573,49.581Z" transform="translate(175.009 478.03)" fill="rgba(0,0,0,0.16)" fill-rule="evenodd"/>
              <path id="Path-40" d="M7.754,0C19.141,32.248,13.275,70.734,0,98.25" transform="translate(540.508 579.566) rotate(2)" fill="none" stroke="#5386bf" stroke-linecap="round" stroke-width="1" fill-rule="evenodd"/>
            </g>
          </g>
          <g id="Example-Paper" transform="translate(4604.541 2368.353) rotate(148)">
            <path id="Rectangle-26" data-name="Rectangle" d="M0,439.613H307.049V219.806q0-109.9,43.864-219.806H43.864Q0,109.9,0,219.806Z" transform="translate(0 0)" fill="#e8ffff" fill-rule="evenodd"/>
            <line id="Path-4-2" data-name="Path-4" x2="159.657" y2="0.001" transform="translate(63.685 350.097)" fill="none" stroke="rgba(0,0,0,0.12)" stroke-linecap="round" stroke-width="0.8"/>
            <line id="Path-4-3" data-name="Path-4" x2="159.657" y2="0.001" transform="translate(68.058 291.188)" fill="none" stroke="rgba(0,0,0,0.12)" stroke-linecap="round" stroke-width="0.8"/>
            <line id="Path-4-4" data-name="Path-4" x2="159.657" y2="0.001" transform="translate(72.431 232.28)" fill="none" stroke="rgba(0,0,0,0.12)" stroke-linecap="round" stroke-width="0.8"/>
            <line id="Path-4-5" data-name="Path-4" x2="159.657" y2="0.001" transform="translate(76.805 173.372)" fill="none" stroke="rgba(0,0,0,0.12)" stroke-linecap="round" stroke-width="0.8"/>
          </g>
          <g id="Wom4.6" transform="translate(4212.948 1554.598)">
            <g id="RLeg-2" data-name="RLeg" transform="translate(892.015 1076.309)">
              <path id="Path-38-4" data-name="Path" d="M35.78,157.682q-1.1,63.536-1.1,83.995c0,15.666.635,62.058-1.092,69.192q-2.43,10.041-4.912,34.63l133.275,3.549q-33.69-65.494-35.65-74.157T109.456,157.682Z" transform="translate(299.577 1647.497)" fill="#ffe2e2" fill-rule="evenodd"/>
              <path id="Path-39-4" data-name="Path" d="M151.463,211.608c-2.941-2.555-20.906-43.071-52.726-43.071-35.555,0-45.222,41.769-46.427,43.071-1.97,2.129-11.08,1.281-13.3,5.329-10.759,19.661-16.452,59.549-6.591,73.979,10.479,15.413,153.117,15.673,161.006,1.157,8.26-15.323-11.248-57.085-26.278-75.136C163.329,212.346,153,212.94,151.463,211.608Z" transform="translate(285.569 1760.914)" fill="#2e2e2e" fill-rule="evenodd"/>
              <path id="Path-40-2" data-name="Path" d="M0,28.382,260.376,0,264.2,3.565c18.557,17.73,99.2,100.073,122.377,212.621,43.748,212.482-14.8,604.921-13.508,690.975,1.236,86.054,41.79,137.976,58.642,259.649s18.444,665.447,18.444,665.447c-44.681,26.552-84,28.453-137.273-1.594Z" fill="#263655" fill-rule="evenodd"/>
              <path id="Path-41-2" data-name="Path" d="M232.584,1356.581,0,16.882,144.77,1.1C151.22,466.509,241.25,1095.614,232.584,1356.581Z" transform="translate(0 11.5)" fill="rgba(255,255,255,0.19)" fill-rule="evenodd"/>
            </g>
            <g id="LLeg-2" data-name="LLeg" transform="translate(630.216 1113.173)">
              <path id="Path-42" data-name="Path" d="M260.592,154.033l-94.729,1.393q5.628,89.088-27.283,119.267L14.618,341.707c-9.7,8.154-15.332,33.432,4.544,37.037C80.683,389.9,256.9,363.42,256.9,363.42Z" transform="translate(54.543 1609.373)" fill="#ffe2e2" fill-rule="evenodd"/>
              <path id="Path-43" data-name="Path" d="M312.867,165.174c-6.363.341-14.44,36.4-50.543,54.886-41.386,21.2-101.576,13.129-127.738,16.13q-18.957,2.175-28.346-35.311Q10.086,250.486,1.552,274.049c-9.949,27.36,54.453,29.4,100.489,27.407,46.094-2,85.613-22.715,107.983-22.2,22.429.52,27.727,14.474,44.5,18.317,17.013,3.908,59.575,3.318,63.519-8.908C322.168,275.967,326.466,164.437,312.867,165.174Z" transform="translate(-0.524 1725.741)" fill="#2e2e2e" fill-rule="evenodd"/>
              <path id="Path-44" data-name="Path" d="M20.735,9.935,313.114,0,315.3,4.056c14.187,26.982,91.924,184.962,67.92,364.53-33.693,252.048-137.61,547.528-141.8,592.667-7.476,80.477,7.476,138.75,13.608,221.873s-32.513,605.907-32.513,605.907c-43.386,26.168-95.014,31.3-160.653.791Q11.737,1079.724,11.3,967.345C10.861,854.967,20.735,9.935,20.735,9.935Z" transform="translate(111.907)" fill="#313a69" fill-rule="evenodd"/>
              <path id="Path-45" data-name="Path" d="M80.9,275.4l-1.962,18.675C58.756,490.993,41.709,909.18,48.9,973.674l1.007,8.175Q62,1088.576,43.468,1517.675L32.512,1353.484q-19.9-305.008-21.135-385.534l-.078-7.761C10.861,847.81,20.735,2.778,20.735,2.778L82.4.685Q92.283,162.758,80.9,275.4Z" transform="translate(111.907 7.157)" fill="rgba(255,255,255,0.19)" fill-rule="evenodd"/>
            </g>
            <g id="Head-2" data-name="Head" transform="translate(849.421 118.235)">
              <path id="Path-46" data-name="Path" d="M25.03,71.951C-10.945,75.9-8.395,139.319,35.4,142.63c8.951,61.138,40.873,90.267,79.791,93.637l-2.159,92.474,172.147-.1s-48.476-65.327-46.06-154.759S237.5.427,237.5.427L14.528,4.438Z" transform="translate(-0.105 -0.427)" fill-rule="evenodd" fill="url(#linear-gradient-3)"/>
            </g>
            <g id="RArm-2" data-name="RArm" transform="translate(1114.294 366.38)">
              <path id="Path-47" data-name="Path" d="M124.438,263.741s-7.528-51.42-5.139-85.254c4.419-62.576-4.033-115.363,9.628-123.574,17.521-10.532,28.426,88.407,28.426,88.407S241.757-18.259,262.617,1.706,249.1,99.338,256,124.445s-62.05,146.538-62.05,146.538L69.743,591.393,26.857,417.174Z" transform="translate(280.611 0.003)" fill="#ffe2e2" fill-rule="evenodd"/>
              <path id="Path-48" data-name="Path" d="M35.158,198.165s151.566,239.141,185.05,285.521c35.122,48.636,97.151,70.173,141.17-7.419q8.049-14.19,28.807-53.848c-11.839-71.25-35.906-130.061-85.531-162.874l-21.885,32.188S182.127,106.784,150.753,63.145C66.146-54.539-62.766,51.138,35.158,198.165Z" transform="translate(0 131.918)" fill="#007fff" fill-rule="evenodd"/>
            </g>
            <g id="Body-2" data-name="Body" transform="translate(722.911 426.355)">
              <path id="Path-49" data-name="Path" d="M445.925,884.4c38.406-56.573,102.414-248.582,106.044-291.778,4.09-49.826-49.18-129.2-50.056-201.33-.779-72.141,39.733-307.666,27.56-327.956C521.829,50.5,334.086-13.945,180.609,2.74,48.091,17.147-4.728,103.229,1.836,118.708,19.755,160.959,102.923,284.274,94.45,341.843,86.075,399.4,37.438,611.885,13.286,684.2-10.768,756.52-2.747,832.445,42.148,863.564c22.214,15.4,81.491,59.142,187.054,58.945S442.947,888.791,445.925,884.4Z" transform="translate(552.193 922.51) rotate(180)" fill="#007fff" fill-rule="evenodd"/>
              <path id="Path-50" data-name="Path" d="M50.526,40.058l1.182-.6Q158.4-13.945,179.88,34.743q26.953,61.09-134.106,338.58C32.854,312.381-3.166,250.779.224,209.478,2.325,184.48,24.647,109.642,50.526,40.058Z" transform="translate(0 120.405)" fill="rgba(0,0,0,0.16)" fill-rule="evenodd"/>
            </g>
            <g id="LArm-2" data-name="LArm" transform="translate(0 464.043)">
              <path id="Path-51" data-name="Path" d="M208.568,202.45s-106.285,6.219-124.611-8.884S-7.368,103.289.606,85.623s92.845,19.7,98.52,8.464c7.3-14.43-30.37-65.909,2.636-68.908,8.5-.775,14.5,30.911,38.435,51.78s72.553,58.015,72.553,58.015L579.4,76.96l34.229,117.667Z" transform="translate(0 256.89)" fill="#ffe2e2" fill-rule="evenodd"/>
              <path id="Path-52" data-name="Path" d="M332.065,26.286C248.107,105.93,129.228,294,103.9,310.563q-5.572,3.645-53.616,22.882c-20.212,53.934,13.961,115.045,63.634,141.211q54.488-7.937,67.3-11.659c65.433-19,179.968-192.224,227.565-247.514C539.651,63.462,416.023-53.353,332.065,26.286Z" transform="translate(463.611 -0.528)" fill="#007fff" fill-rule="evenodd"/>
            </g>
            <path id="Path-53" data-name="Path" d="M29.807,238.023C117.9,378.668,136.669,557.744,199.129,617.851c49.581,47.713,128.279,34.477,128.279,34.477s68.16,57.327,135,0S530.33,395.64,483.852,270.339,388.606,0,205.777,0C103.333,0-69.692,79.169,29.807,238.023Z" transform="translate(1325.762 677.806) rotate(180)" fill="#28211d" fill-rule="evenodd"/>
          </g>
          <g id="Group-28" transform="translate(5506.598 904.41)">
            <path id="Rectangle-27" data-name="Rectangle" d="M89.3,3.138H484.079a89.3,89.3,0,0,1,89.3,89.3V596.393a89.3,89.3,0,0,1-89.3,89.3H89.3A89.3,89.3,0,0,1,0,596.393V92.434A89.3,89.3,0,0,1,89.3,3.138Z" transform="translate(0 32.786)" fill="#ffba00" fill-rule="evenodd"/>
            <path id="Rectangle-28" data-name="Rectangle" d="M63.7,7.322H422.456a59.531,59.531,0,0,1,59.531,59.531V534.546a59.531,59.531,0,0,1-59.531,59.531H63.7A59.531,59.531,0,0,1,4.174,534.546V66.853A59.531,59.531,0,0,1,63.7,7.322Z" transform="translate(43.608 76.5)" fill="#fff" fill-rule="evenodd"/>
            <g id="Group-29" transform="translate(394.196 490.958)">
              <ellipse id="Oval-8" data-name="Oval" cx="149.316" cy="149.682" rx="149.316" ry="149.682" transform="translate(0 0)" fill="#007fff"/>
              <path id="Path-54" data-name="Path" d="M116.173,15.678a14.939,14.939,0,0,1,26.5,13.7l-.748,1.451L91.869,116.352A26.857,26.857,0,0,1,51.6,123.519l-1.568-1.4L11.606,84.985A14.953,14.953,0,0,1,31.1,62.362L32.33,63.43l35.69,34.492Z" transform="translate(73.515 86.541)" fill="#fff" fill-rule="evenodd"/>
            </g>
            <path id="Rectangle-29" data-name="Rectangle" d="M22.409,18.828h310.52a11.975,11.975,0,0,1,0,23.949H22.409a11.975,11.975,0,0,1,0-23.949Z" transform="translate(109.019 196.715)" fill="#007fff" opacity="0.34"/>
            <path id="Rectangle-30" data-name="Rectangle" d="M22.409,27.2h310.52a11.975,11.975,0,0,1,0,23.949H22.409a11.975,11.975,0,0,1,0-23.949Z" transform="translate(109.019 284.144)" fill="#007fff" opacity="0.34"/>
            <path id="Rectangle-31" data-name="Rectangle" d="M22.409,35.563h310.52a11.975,11.975,0,0,1,0,23.949H22.409a11.975,11.975,0,0,1,0-23.949Z" transform="translate(109.019 371.573)" fill="#007fff" opacity="0.34"/>
            <rect id="Rectangle-32" data-name="Rectangle" width="310.578" height="131.72" transform="translate(131.399)" fill="#ffba00"/>
          </g>
          <g id="Icon17" transform="translate(2953.643 2278.197)">
            <circle id="Oval-9" data-name="Oval" cx="169.002" cy="169.002" r="169.002" transform="translate(0 0)" fill="#ffba00"/>
            <path id="Path-55" data-name="Path" d="M162.458,2.086a7.175,7.175,0,0,1,9.6-.464l.543.494,56.283,56.618a7.175,7.175,0,0,1,.4,9.606l-.5.54-56.25,55.192a7.175,7.175,0,0,1-12.166-4.43l-.033-.691,0-23-93.754-.491a7.175,7.175,0,0,1-7.1-6.486l-.033-.688,0-19.07-45.2,46.395,45.2,45.072,0-18.565a7.175,7.175,0,0,1,6.483-7.142l.691-.033h66.165a6.1,6.1,0,0,1,.624,12.17l-.624.031H71.645l0,25.657a7.175,7.175,0,0,1-6.483,7.142l-.691.033a7.175,7.175,0,0,1-4.54-1.619l-.526-.475-57.3-57.137a7.175,7.175,0,0,1-.555-9.54l.482-.547,57.3-58.814a7.174,7.174,0,0,1,12.277,4.286l.036.721,0,26.432,93.761.5a7.175,7.175,0,0,1,7.1,6.486l.033.688,0,16.019,44.091-43.266-44.091-44.35,0,17.68a7.175,7.175,0,0,1-6.483,7.142l-.691.033H100.384a6.1,6.1,0,0,1-.624-12.17l.624-.032,59.956,0,0-24.835a7.175,7.175,0,0,1,1.637-4.561Z" transform="translate(21.977 173.446) rotate(-38)" fill="#fff"/>
          </g>
        </g>
      </g>
    </g>
  </g>
</svg>
